<?xml version="1.0" encoding="UTF-8" standalone="no"?>
<!-- Generator: Adobe Illustrator 18.1.1, SVG Export Plug-In . SVG Version: 6.00 Build 0)  -->

<svg
   xmlns:dc="http://purl.org/dc/elements/1.1/"
   xmlns:cc="http://creativecommons.org/ns#"
   xmlns:rdf="http://www.w3.org/1999/02/22-rdf-syntax-ns#"
   xmlns:svg="http://www.w3.org/2000/svg"
   xmlns="http://www.w3.org/2000/svg"
   xmlns:sodipodi="http://sodipodi.sourceforge.net/DTD/sodipodi-0.dtd"
   xmlns:inkscape="http://www.inkscape.org/namespaces/inkscape"
   version="1.1"
   id="Capa_1"
   x="0px"
   y="0px"
   viewBox="0 0 398.97 398.97"
   style="enable-background:new 0 0 398.97 398.97;"
   xml:space="preserve"
   sodipodi:docname="school.svg"
   inkscape:version="0.92.4 (f8dce91, 2019-08-02)"><metadata
   id="metadata48"><rdf:RDF><cc:Work
       rdf:about=""><dc:format>image/svg+xml</dc:format><dc:type
         rdf:resource="http://purl.org/dc/dcmitype/StillImage" /></cc:Work></rdf:RDF></metadata><defs
   id="defs46" /><sodipodi:namedview
   pagecolor="#ffffff"
   bordercolor="#666666"
   borderopacity="1"
   objecttolerance="10"
   gridtolerance="10"
   guidetolerance="10"
   inkscape:pageopacity="0"
   inkscape:pageshadow="2"
   inkscape:window-width="1600"
   inkscape:window-height="804"
   id="namedview44"
   showgrid="false"
   inkscape:zoom="0.59152317"
   inkscape:cx="200.33028"
   inkscape:cy="199.485"
   inkscape:window-x="0"
   inkscape:window-y="27"
   inkscape:window-maximized="1"
   inkscape:current-layer="Capa_1" />
<g
   id="g11"
   style="fill:#008000">
	<g
   id="Layer_5_59_"
   style="fill:#008000">
		<g
   id="g8"
   style="fill:#008000">
			<path
   d="m 225.092,276.586 c -7.101,4.355 -16.195,6.754 -25.607,6.754 -9.412,0 -18.506,-2.398 -25.607,-6.754 L 57.946,205.484 c 0,0 -10.464,-6.414 -10.464,8.116 0,16.5 0,66 0,66 0,0.66 0,3.973 0,5 0,37.402 68.053,77.723 152,77.723 83.947,0 152,-40.32 152,-77.723 0,-1.027 0,-4.34 0,-5 0,0 0,-52.502 0,-70.003 0,-11.663 -7.439,-5.964 -7.439,-5.964 z"
   id="path2"
   inkscape:connector-curvature="0"
   style="fill:#008000" />
			<path
   d="m 392.289,148.927 c 8.908,-5.463 8.908,-14.403 0,-19.867 L 215.681,40.745 c -8.908,-5.463 -23.485,-5.463 -32.393,0 L 6.681,129.06 c -8.908,5.463 -8.908,14.403 0,19.867 l 176.607,108.315 c 8.908,5.463 23.485,5.463 32.393,0"
   id="path4"
   inkscape:connector-curvature="0"
   style="fill:#008000" />
			<path
   d="m 384.985,309.475 c 0,-29.906 0,-119.625 0,-119.625 0,0 0.083,-5.666 -3.279,-3.795 -2.697,1.501 -9.308,5.186 -11.637,7.212 -2.689,2.337 -2.083,7.583 -2.083,7.583 0,0 0,81.469 0,108.625 0,1.542 -1.325,2.278 -1.957,2.65 -6.105,3.589 -10.21,10.214 -10.21,17.809 0,11.414 9.252,20.667 20.667,20.667 11.414,0 20.666,-9.253 20.666,-20.667 0,-7.624 -4.135,-14.27 -10.279,-17.85 -0.611,-0.356 -1.888,-1.068 -1.888,-2.609 z"
   id="path6"
   inkscape:connector-curvature="0"
   style="fill:#008000" />
		</g>
	</g>
</g>
<g
   id="g13">
</g>
<g
   id="g15">
</g>
<g
   id="g17">
</g>
<g
   id="g19">
</g>
<g
   id="g21">
</g>
<g
   id="g23">
</g>
<g
   id="g25">
</g>
<g
   id="g27">
</g>
<g
   id="g29">
</g>
<g
   id="g31">
</g>
<g
   id="g33">
</g>
<g
   id="g35">
</g>
<g
   id="g37">
</g>
<g
   id="g39">
</g>
<g
   id="g41">
</g>
</svg>